<svg width="3075" height="498" viewBox="0 0 3075 498" fill="none" xmlns="http://www.w3.org/2000/svg">
<path d="M859.2 269.8V355H798C798 282.4 798 209.8 798 137.5C909.9 137.5 1021.8 137.5 1133.7 137.5V184.9C1042.2 184.9 950.7 184.9 859.2 184.9V222.4C946.2 222.4 1032.9 222.4 1119.9 222.4V269.8C1032.9 269.8 946.2 269.8 859.2 269.8ZM1329.67 307.3V355C1272.37 355 1215.07 355 1157.77 355V137.5H1218.97V307.3H1329.67ZM1525.66 307.3V355C1468.36 355 1411.06 355 1353.76 355V137.5C1411.06 137.5 1468.36 137.5 1525.66 137.5V185.2H1414.96V222.4H1512.16V270.1H1414.96V307.3H1525.66ZM1612.16 355H1540.76L1622.96 246.1L1540.76 137.5H1612.16L1658.66 199L1704.86 137.5H1776.26L1694.36 246.1L1776.26 355H1704.86L1658.66 293.5L1612.16 355ZM1852.36 197.2V355H1791.16V137.5H1876.06L2040.46 295H2041.96V137.5H2103.16V355H2017.96L1853.56 197.2H1852.36ZM2204.3 293.8L2186.3 355H2118.2L2189 137.5C2220.8 137.5 2252.6 137.5 2284.4 137.5L2355.2 355H2287.4L2269.1 293.8H2204.3ZM2236.4 185.2L2218.1 246.1H2255.3L2237.3 185.2H2236.4ZM2406.64 355V185.2H2334.04V137.5C2402.74 137.5 2471.74 137.5 2540.44 137.5V185.2H2467.84V355H2406.64ZM2625.51 355H2564.31V293.8V137.5H2625.51V355ZM2797.16 355C2767.16 355 2737.46 355 2707.46 355L2640.56 137.5H2711.96L2751.86 307.3H2752.76L2792.66 137.5H2864.06L2797.16 355ZM3050.86 307.3V355C2993.56 355 2936.26 355 2878.96 355V137.5C2936.26 137.5 2993.56 137.5 3050.86 137.5V185.2H2940.16V222.4H3037.36V270.1H2940.16V307.3H3050.86Z" fill="#313131"/>
<rect width="498" height="498" rx="100" fill="#2B7FFF"/>
<path d="M184.33 314.591C184.33 315.573 184.279 316.547 184.183 317.522C184.088 318.497 183.941 319.466 183.75 320.428C183.559 321.39 183.323 322.34 183.036 323.277C182.756 324.213 182.424 325.131 182.049 326.036C181.673 326.941 181.258 327.827 180.793 328.693C180.334 329.553 179.831 330.395 179.283 331.21C178.741 332.026 178.161 332.81 177.537 333.568C176.912 334.326 176.256 335.053 175.568 335.741C174.873 336.436 174.147 337.092 173.389 337.716C172.63 338.334 171.846 338.921 171.031 339.462C170.215 340.01 169.38 340.514 168.514 340.973C167.653 341.431 166.768 341.852 165.863 342.228C164.958 342.604 164.034 342.935 163.097 343.216C162.16 343.502 161.211 343.738 160.249 343.929C159.287 344.121 158.318 344.267 157.343 344.363C156.368 344.458 155.393 344.503 154.412 344.503C153.437 344.503 152.455 344.458 151.48 344.363C150.505 344.267 149.537 344.121 148.575 343.929C147.619 343.738 146.669 343.502 145.733 343.216C144.796 342.935 143.872 342.604 142.967 342.228C142.062 341.852 141.176 341.431 140.31 340.973C139.449 340.514 138.608 340.01 137.793 339.462C136.977 338.921 136.193 338.334 135.435 337.716C134.677 337.092 133.957 336.436 133.262 335.741C132.567 335.053 131.911 334.326 131.293 333.568C130.668 332.81 130.089 332.026 129.541 331.21C128.999 330.395 128.495 329.553 128.03 328.693C127.571 327.827 127.151 326.941 126.775 326.036C126.405 325.131 126.074 324.213 125.787 323.277C125.507 322.34 125.265 321.39 125.074 320.428C124.882 319.466 124.742 318.497 124.647 317.522C124.551 316.547 124.5 315.573 124.5 314.591C124.5 313.61 124.551 312.635 124.647 311.66C124.742 310.685 124.882 309.716 125.074 308.754C125.265 307.792 125.507 306.849 125.787 305.906C126.074 304.969 126.405 304.051 126.775 303.146C127.151 302.242 127.571 301.356 128.03 300.489C128.495 299.629 128.999 298.788 129.541 297.972C130.089 297.156 130.668 296.373 131.293 295.614C131.911 294.856 132.567 294.13 133.262 293.441C133.957 292.747 134.677 292.09 135.435 291.466C136.193 290.848 136.977 290.262 137.793 289.72C138.608 289.178 139.449 288.675 140.31 288.21C141.176 287.751 142.062 287.33 142.967 286.954C143.872 286.578 144.796 286.253 145.733 285.967C146.669 285.68 147.619 285.444 148.575 285.253C149.537 285.062 150.505 284.922 151.48 284.82C152.455 284.724 153.437 284.679 154.412 284.679C155.393 284.679 156.368 284.724 157.343 284.82C158.318 284.922 159.287 285.062 160.249 285.253C161.211 285.444 162.16 285.68 163.097 285.967C164.034 286.253 164.958 286.578 165.863 286.954C166.768 287.33 167.653 287.751 168.514 288.21C169.38 288.675 170.215 289.178 171.031 289.72C171.846 290.262 172.63 290.848 173.389 291.466C174.147 292.09 174.873 292.747 175.568 293.441C176.256 294.13 176.912 294.856 177.537 295.614C178.161 296.373 178.741 297.156 179.283 297.972C179.831 298.788 180.334 299.629 180.793 300.489C181.258 301.356 181.673 302.242 182.049 303.146C182.424 304.051 182.756 304.969 183.036 305.906C183.323 306.849 183.559 307.792 183.75 308.754C183.941 309.716 184.088 310.685 184.183 311.66C184.279 312.635 184.33 313.61 184.33 314.591Z" fill="white"/>
<path d="M281.444 374.713C281.444 375.695 281.4 376.67 281.304 377.645C281.209 378.62 281.062 379.588 280.871 380.551C280.68 381.513 280.444 382.462 280.157 383.399C279.87 384.336 279.545 385.253 279.169 386.158C278.793 387.063 278.373 387.949 277.914 388.815C277.449 389.676 276.952 390.517 276.404 391.333C275.862 392.148 275.276 392.932 274.658 393.69C274.033 394.449 273.377 395.175 272.682 395.863C271.994 396.558 271.268 397.214 270.509 397.839C269.751 398.457 268.967 399.043 268.152 399.585C267.336 400.133 266.495 400.63 265.635 401.095C264.768 401.554 263.882 401.974 262.977 402.35C262.072 402.726 261.155 403.051 260.218 403.338C259.281 403.625 258.332 403.861 257.37 404.052C256.407 404.243 255.439 404.389 254.464 404.485C253.489 404.581 252.514 404.625 251.533 404.625C250.551 404.625 249.576 404.581 248.601 404.485C247.626 404.389 246.658 404.243 245.696 404.052C244.733 403.861 243.784 403.625 242.847 403.338C241.91 403.051 240.993 402.726 240.088 402.35C239.183 401.974 238.297 401.554 237.431 401.095C236.57 400.63 235.729 400.133 234.914 399.585C234.098 399.043 233.314 398.457 232.556 397.839C231.797 397.214 231.071 396.558 230.383 395.863C229.688 395.175 229.032 394.449 228.407 393.69C227.789 392.932 227.203 392.148 226.661 391.333C226.113 390.517 225.616 389.676 225.151 388.815C224.692 387.949 224.272 387.063 223.896 386.158C223.52 385.253 223.195 384.336 222.908 383.399C222.621 382.462 222.386 381.513 222.194 380.551C222.003 379.588 221.857 378.62 221.761 377.645C221.665 376.67 221.621 375.695 221.621 374.713C221.621 373.732 221.665 372.757 221.761 371.782C221.857 370.807 222.003 369.839 222.194 368.876C222.386 367.914 222.621 366.965 222.908 366.028C223.195 365.091 223.52 364.174 223.896 363.269C224.272 362.364 224.692 361.478 225.151 360.612C225.616 359.751 226.113 358.91 226.661 358.094C227.203 357.279 227.789 356.495 228.407 355.737C229.032 354.978 229.688 354.252 230.383 353.564C231.071 352.869 231.797 352.213 232.556 351.588C233.314 350.97 234.098 350.384 234.914 349.842C235.729 349.294 236.57 348.797 237.431 348.332C238.297 347.873 239.183 347.453 240.088 347.077C240.993 346.701 241.91 346.376 242.847 346.089C243.784 345.802 244.733 345.566 245.696 345.375C246.658 345.184 247.626 345.038 248.601 344.942C249.576 344.846 250.551 344.802 251.533 344.802C252.514 344.802 253.489 344.846 254.464 344.942C255.439 345.038 256.407 345.184 257.37 345.375C258.332 345.566 259.281 345.802 260.218 346.089C261.155 346.376 262.072 346.701 262.977 347.077C263.882 347.453 264.768 347.873 265.635 348.332C266.495 348.797 267.336 349.294 268.152 349.842C268.967 350.384 269.751 350.97 270.509 351.588C271.268 352.213 271.994 352.869 272.682 353.564C273.377 354.252 274.033 354.978 274.658 355.737C275.276 356.495 275.862 357.279 276.404 358.094C276.952 358.91 277.449 359.751 277.914 360.612C278.373 361.478 278.793 362.364 279.169 363.269C279.545 364.174 279.87 365.091 280.157 366.028C280.444 366.965 280.68 367.914 280.871 368.876C281.062 369.839 281.209 370.807 281.304 371.782C281.4 372.757 281.444 373.732 281.444 374.713Z" fill="white"/>
<path d="M387.82 314.591C387.82 315.573 387.769 316.547 387.673 317.522C387.578 318.497 387.437 319.466 387.246 320.428C387.055 321.39 386.813 322.34 386.532 323.277C386.246 324.213 385.914 325.131 385.545 326.036C385.169 326.941 384.748 327.827 384.289 328.693C383.824 329.553 383.321 330.395 382.779 331.21C382.231 332.026 381.651 332.81 381.027 333.568C380.409 334.326 379.752 335.053 379.058 335.741C378.363 336.436 377.637 337.092 376.885 337.716C376.126 338.334 375.336 338.921 374.527 339.462C373.711 340.01 372.87 340.514 372.004 340.973C371.143 341.431 370.258 341.852 369.353 342.228C368.448 342.604 367.524 342.935 366.587 343.216C365.65 343.502 364.701 343.738 363.739 343.929C362.783 344.121 361.814 344.267 360.839 344.363C359.864 344.458 358.883 344.503 357.908 344.503C356.927 344.503 355.952 344.458 354.977 344.363C354.002 344.267 353.033 344.121 352.071 343.929C351.109 343.738 350.159 343.502 349.222 343.216C348.286 342.935 347.362 342.604 346.457 342.228C345.552 341.852 344.666 341.431 343.806 340.973C342.939 340.514 342.105 340.01 341.289 339.462C340.473 338.921 339.689 338.334 338.931 337.716C338.173 337.092 337.446 336.436 336.752 335.741C336.064 335.053 335.401 334.326 334.783 333.568C334.158 332.81 333.578 332.026 333.037 331.21C332.489 330.395 331.985 329.553 331.527 328.693C331.061 327.827 330.647 326.941 330.271 326.036C329.895 325.131 329.564 324.213 329.283 323.277C328.997 322.34 328.761 321.39 328.57 320.428C328.379 319.466 328.232 318.497 328.136 317.522C328.041 316.547 327.99 315.573 327.99 314.591C327.99 313.61 328.041 312.635 328.136 311.66C328.232 310.685 328.379 309.716 328.57 308.754C328.761 307.792 328.997 306.849 329.283 305.906C329.564 304.969 329.895 304.051 330.271 303.146C330.647 302.242 331.061 301.356 331.527 300.489C331.985 299.629 332.489 298.788 333.037 297.972C333.578 297.156 334.158 296.373 334.783 295.614C335.401 294.856 336.064 294.13 336.752 293.441C337.446 292.747 338.173 292.09 338.931 291.466C339.689 290.848 340.473 290.262 341.289 289.72C342.105 289.178 342.939 288.675 343.806 288.21C344.666 287.751 345.552 287.33 346.457 286.954C347.362 286.578 348.286 286.253 349.222 285.967C350.159 285.68 351.109 285.444 352.071 285.253C353.033 285.062 354.002 284.922 354.977 284.82C355.952 284.724 356.927 284.679 357.908 284.679C358.883 284.679 359.864 284.724 360.839 284.82C361.814 284.922 362.783 285.062 363.739 285.253C364.701 285.444 365.65 285.68 366.587 285.967C367.524 286.253 368.448 286.578 369.353 286.954C370.258 287.33 371.143 287.751 372.004 288.21C372.87 288.675 373.711 289.178 374.527 289.72C375.336 290.262 376.126 290.848 376.885 291.466C377.637 292.09 378.363 292.747 379.058 293.441C379.752 294.13 380.409 294.856 381.027 295.614C381.651 296.373 382.231 297.156 382.779 297.972C383.321 298.788 383.824 299.629 384.289 300.489C384.748 301.356 385.169 302.242 385.545 303.146C385.914 304.051 386.246 304.969 386.532 305.906C386.813 306.849 387.055 307.792 387.246 308.754C387.437 309.716 387.578 310.685 387.673 311.66C387.769 312.635 387.82 313.61 387.82 314.591Z" fill="white"/>
<path d="M184.33 198.972C184.33 199.953 184.279 200.928 184.183 201.903C184.088 202.878 183.941 203.846 183.75 204.809C183.559 205.771 183.323 206.72 183.036 207.657C182.756 208.594 182.424 209.518 182.049 210.423C181.673 211.328 181.258 212.207 180.793 213.074C180.334 213.94 179.831 214.775 179.283 215.591C178.741 216.406 178.161 217.19 177.537 217.948C176.912 218.707 176.256 219.433 175.568 220.128C174.873 220.816 174.147 221.472 173.389 222.097C172.63 222.715 171.846 223.301 171.031 223.843C170.215 224.391 169.38 224.894 168.514 225.353C167.653 225.818 166.768 226.232 165.863 226.608C164.958 226.984 164.034 227.316 163.097 227.596C162.16 227.883 161.211 228.119 160.249 228.31C159.287 228.501 158.318 228.648 157.343 228.743C156.368 228.839 155.393 228.883 154.412 228.883C153.437 228.883 152.455 228.839 151.48 228.743C150.505 228.648 149.537 228.501 148.575 228.31C147.619 228.119 146.669 227.883 145.733 227.596C144.796 227.316 143.872 226.984 142.967 226.608C142.062 226.232 141.176 225.818 140.31 225.353C139.449 224.894 138.608 224.391 137.793 223.843C136.977 223.301 136.193 222.715 135.435 222.097C134.677 221.472 133.957 220.816 133.262 220.128C132.567 219.433 131.911 218.707 131.293 217.948C130.668 217.19 130.089 216.406 129.541 215.591C128.999 214.775 128.495 213.94 128.03 213.074C127.571 212.207 127.151 211.328 126.775 210.423C126.405 209.518 126.074 208.594 125.787 207.657C125.507 206.72 125.265 205.771 125.074 204.809C124.882 203.846 124.742 202.878 124.647 201.903C124.551 200.928 124.5 199.953 124.5 198.972C124.5 197.99 124.551 197.015 124.647 196.04C124.742 195.065 124.882 194.097 125.074 193.134C125.265 192.179 125.507 191.229 125.787 190.292C126.074 189.349 126.405 188.432 126.775 187.527C127.151 186.622 127.571 185.736 128.03 184.87C128.495 184.009 128.999 183.168 129.541 182.353C130.089 181.537 130.668 180.753 131.293 179.995C131.911 179.236 132.567 178.516 133.262 177.822C133.957 177.127 134.677 176.471 135.435 175.853C136.193 175.228 136.977 174.648 137.793 174.1C138.608 173.559 139.449 173.055 140.31 172.59C141.176 172.131 142.062 171.711 142.967 171.335C143.872 170.959 144.796 170.634 145.733 170.347C146.669 170.06 147.619 169.824 148.575 169.633C149.537 169.442 150.505 169.302 151.48 169.206C152.455 169.111 153.437 169.06 154.412 169.06C155.393 169.06 156.368 169.111 157.343 169.206C158.318 169.302 159.287 169.442 160.249 169.633C161.211 169.824 162.16 170.06 163.097 170.347C164.034 170.634 164.958 170.959 165.863 171.335C166.768 171.711 167.653 172.131 168.514 172.59C169.38 173.055 170.215 173.559 171.031 174.1C171.846 174.648 172.63 175.228 173.389 175.853C174.147 176.471 174.873 177.127 175.568 177.822C176.256 178.516 176.912 179.236 177.537 179.995C178.161 180.753 178.741 181.537 179.283 182.353C179.831 183.168 180.334 184.009 180.793 184.87C181.258 185.736 181.673 186.622 182.049 187.527C182.424 188.432 182.756 189.349 183.036 190.292C183.323 191.229 183.559 192.179 183.75 193.134C183.941 194.097 184.088 195.065 184.183 196.04C184.279 197.015 184.33 197.99 184.33 198.972Z" fill="white"/>
<path d="M387.813 198.972C387.813 199.953 387.769 200.928 387.673 201.903C387.578 202.878 387.431 203.846 387.24 204.809C387.049 205.771 386.813 206.72 386.526 207.657C386.246 208.594 385.914 209.518 385.538 210.423C385.162 211.328 384.748 212.207 384.283 213.074C383.824 213.94 383.321 214.775 382.773 215.591C382.231 216.406 381.645 217.19 381.027 217.948C380.402 218.707 379.746 219.433 379.058 220.128C378.363 220.816 377.637 221.472 376.878 222.097C376.12 222.715 375.336 223.301 374.521 223.843C373.705 224.391 372.87 224.894 372.004 225.353C371.137 225.818 370.258 226.232 369.353 226.608C368.448 226.984 367.524 227.316 366.587 227.596C365.65 227.883 364.701 228.119 363.739 228.31C362.776 228.501 361.808 228.648 360.833 228.743C359.858 228.839 358.883 228.883 357.902 228.883C356.92 228.883 355.945 228.839 354.97 228.743C353.995 228.648 353.027 228.501 352.065 228.31C351.109 228.119 350.159 227.883 349.222 227.596C348.279 227.316 347.362 226.984 346.457 226.608C345.552 226.232 344.666 225.818 343.8 225.353C342.939 224.894 342.098 224.391 341.283 223.843C340.467 223.301 339.683 222.715 338.925 222.097C338.166 221.472 337.446 220.816 336.752 220.128C336.057 219.433 335.401 218.707 334.783 217.948C334.158 217.19 333.578 216.406 333.03 215.591C332.489 214.775 331.985 213.94 331.52 213.074C331.061 212.207 330.641 211.328 330.265 210.423C329.889 209.518 329.564 208.594 329.277 207.657C328.99 206.72 328.755 205.771 328.563 204.809C328.372 203.846 328.232 202.878 328.136 201.903C328.041 200.928 327.99 199.953 327.99 198.972C327.99 197.99 328.041 197.015 328.136 196.04C328.232 195.065 328.372 194.097 328.563 193.134C328.755 192.179 328.99 191.229 329.277 190.292C329.564 189.349 329.889 188.432 330.265 187.527C330.641 186.622 331.061 185.736 331.52 184.87C331.985 184.009 332.489 183.168 333.03 182.353C333.578 181.537 334.158 180.753 334.783 179.995C335.401 179.236 336.057 178.516 336.752 177.822C337.446 177.127 338.166 176.471 338.925 175.853C339.683 175.228 340.467 174.648 341.283 174.1C342.098 173.559 342.939 173.055 343.8 172.59C344.666 172.131 345.552 171.711 346.457 171.335C347.362 170.959 348.279 170.634 349.222 170.347C350.159 170.06 351.109 169.824 352.065 169.633C353.027 169.442 353.995 169.302 354.97 169.206C355.945 169.111 356.92 169.06 357.902 169.06C358.883 169.06 359.858 169.111 360.833 169.206C361.808 169.302 362.776 169.442 363.739 169.633C364.701 169.824 365.65 170.06 366.587 170.347C367.524 170.634 368.448 170.959 369.353 171.335C370.258 171.711 371.137 172.131 372.004 172.59C372.87 173.055 373.705 173.559 374.521 174.1C375.336 174.648 376.12 175.228 376.878 175.853C377.637 176.471 378.363 177.127 379.058 177.822C379.746 178.516 380.402 179.236 381.027 179.995C381.645 180.753 382.231 181.537 382.773 182.353C383.321 183.168 383.824 184.009 384.283 184.87C384.748 185.736 385.162 186.622 385.538 187.527C385.914 188.432 386.246 189.349 386.526 190.292C386.813 191.229 387.049 192.179 387.24 193.134C387.431 194.097 387.578 195.065 387.673 196.04C387.769 197.015 387.813 197.99 387.813 198.972Z" fill="white"/>
<mask id="mask0_439_48" style="mask-type:luminance" maskUnits="userSpaceOnUse" x="221" y="108" width="61" height="61">
<path d="M221.621 108.938H281.463V168.786H221.621V108.938Z" fill="white"/>
</mask>
<g mask="url(#mask0_439_48)">
<path d="M281.444 138.856C281.444 139.831 281.4 140.812 281.304 141.787C281.209 142.762 281.062 143.73 280.871 144.686C280.68 145.649 280.444 146.598 280.157 147.535C279.87 148.471 279.545 149.395 279.169 150.3C278.793 151.205 278.373 152.091 277.914 152.951C277.449 153.818 276.952 154.659 276.404 155.475C275.862 156.284 275.276 157.074 274.658 157.832C274.033 158.584 273.377 159.311 272.682 160.005C271.994 160.7 271.268 161.356 270.509 161.974C269.751 162.599 268.967 163.179 268.152 163.727C267.336 164.268 266.495 164.772 265.635 165.231C264.768 165.696 263.882 166.116 262.977 166.486C262.072 166.862 261.155 167.193 260.218 167.48C259.281 167.761 258.332 168.003 257.37 168.194C256.407 168.385 255.439 168.525 254.464 168.621C253.489 168.716 252.514 168.767 251.533 168.767C250.551 168.767 249.576 168.716 248.601 168.621C247.626 168.525 246.658 168.385 245.696 168.194C244.733 168.003 243.784 167.761 242.847 167.48C241.91 167.193 240.993 166.862 240.088 166.486C239.183 166.116 238.297 165.696 237.431 165.231C236.57 164.772 235.729 164.268 234.914 163.727C234.098 163.179 233.314 162.599 232.556 161.974C231.797 161.356 231.071 160.7 230.383 160.005C229.688 159.311 229.032 158.584 228.407 157.832C227.789 157.074 227.203 156.284 226.661 155.475C226.113 154.659 225.616 153.818 225.151 152.951C224.692 152.091 224.272 151.205 223.896 150.3C223.52 149.395 223.195 148.471 222.908 147.535C222.621 146.598 222.386 145.649 222.194 144.686C222.003 143.73 221.857 142.762 221.761 141.787C221.665 140.812 221.621 139.831 221.621 138.856C221.621 137.874 221.665 136.893 221.761 135.918C221.857 134.943 222.003 133.981 222.194 133.019C222.386 132.056 222.621 131.107 222.908 130.17C223.195 129.233 223.52 128.309 223.896 127.405C224.272 126.5 224.692 125.614 225.151 124.754C225.616 123.887 226.113 123.046 226.661 122.237C227.203 121.421 227.789 120.631 228.407 119.879C229.032 119.12 229.688 118.394 230.383 117.699C231.071 117.011 231.797 116.349 232.556 115.73C233.314 115.106 234.098 114.526 234.914 113.978C235.729 113.436 236.57 112.933 237.431 112.474C238.297 112.009 239.183 111.588 240.088 111.219C240.993 110.843 241.91 110.511 242.847 110.225C243.784 109.944 244.733 109.709 245.696 109.517C246.658 109.326 247.626 109.18 248.601 109.084C249.576 108.988 250.551 108.938 251.533 108.938C252.514 108.938 253.489 108.988 254.464 109.084C255.439 109.18 256.407 109.326 257.37 109.517C258.332 109.709 259.281 109.944 260.218 110.225C261.155 110.511 262.072 110.843 262.977 111.219C263.882 111.588 264.768 112.009 265.635 112.474C266.495 112.933 267.336 113.436 268.152 113.978C268.967 114.526 269.751 115.106 270.509 115.73C271.268 116.349 271.994 117.011 272.682 117.699C273.377 118.394 274.033 119.12 274.658 119.879C275.276 120.631 275.862 121.421 276.404 122.237C276.952 123.046 277.449 123.887 277.914 124.754C278.373 125.614 278.793 126.5 279.169 127.405C279.545 128.309 279.87 129.233 280.157 130.17C280.444 131.107 280.68 132.056 280.871 133.019C281.062 133.981 281.209 134.943 281.304 135.918C281.4 136.893 281.444 137.874 281.444 138.856Z" fill="white"/>
</g>
</svg>
